<svg xmlns="http://www.w3.org/2000/svg" xmlns:xlink="http://www.w3.org/1999/xlink" width="120" height="35.604" viewBox="0 0 120 35.604"><defs><style>.a{fill:rgba(255,255,255,0);}.b{fill:url(#a);}.c{fill:url(#b);}.d{fill:url(#c);}.e{fill:#05854a;}</style><linearGradient id="a" x1="1" y1="0.5" x2="0" y2="0.5" gradientUnits="objectBoundingBox"><stop offset="0" stop-color="#f47821"/><stop offset="1" stop-color="#cc2a2b"/></linearGradient><linearGradient id="b" y1="0.5" x2="1" y2="0.5" gradientUnits="objectBoundingBox"><stop offset="0" stop-color="#04afe5"/><stop offset="1" stop-color="#006bb6"/></linearGradient><linearGradient id="c" x1="1" y1="0.5" x2="0.098" y2="0.5" gradientUnits="objectBoundingBox"><stop offset="0" stop-color="#089f55"/><stop offset="1" stop-color="#89c53f"/></linearGradient></defs><g transform="translate(-820 -904)"><rect class="a" width="120" height="35.604" transform="translate(820 904)"/><g transform="translate(823.297 905.978)"><path class="b" d="M207.369,69.82a9.259,9.259,0,0,0-3.241-1.931,8.682,8.682,0,0,0-2.63-.56c-.78,0-1.45.248-1.62,1.03-.324,1.489-.172,14.281-.056,15.76.081,1.087.539,1.722,1.814,1.7C210.529,85.673,212.862,74.894,207.369,69.82Z" transform="translate(-199.682 -57.285)"/><path class="c" d="M223.185,54.36a8.446,8.446,0,0,0-2.941-1.751,7.816,7.816,0,0,0-2.389-.512c-.716,0-1.32.231-1.477.939-.294,1.348-.154,12.962-.051,14.308.077.985.489,1.56,1.647,1.543C226.052,68.752,228.172,58.964,223.185,54.36Z" transform="translate(-205.31 -52.096)"/><path class="d" d="M227.667,70.432a10.634,10.634,0,0,0-3.7-2.2,9.865,9.865,0,0,0-3-.642c-.9,0-1.664.284-1.858,1.176-.375,1.7-.195,16.288-.063,17.98.1,1.244.613,1.961,2.067,1.938C231.265,88.523,233.933,76.221,227.667,70.432Z" transform="translate(-206.225 -57.374)"/><g transform="translate(28.56 9.739)"><g transform="translate(0 0.585)"><path class="e" d="M248.151,67.754H243V81.842h5.155c4.254,0,7.341-2.951,7.341-7.017,0-4.231-2.95-7.071-7.342-7.071m4.855,7.053a4.609,4.609,0,0,1-4.922,4.876h-2.6V69.913h2.6A4.533,4.533,0,0,1,253.007,74.807Z" transform="translate(-242.998 -67.754)"/><path class="e" d="M272.568,74.551a3.9,3.9,0,0,0,1.522-3.183c0-2.264-1.816-3.616-4.859-3.615h-5.587V81.841h5.687c3.436,0,5.49-1.5,5.489-4.025a3.385,3.385,0,0,0-2.252-3.266M268.3,73.536a.974.974,0,0,0-.8.816,1.246,1.246,0,0,0,.2.919.871.871,0,0,0,.572.363,8.888,8.888,0,0,0,1.054.086c1.107.05,2.282.1,2.806,1.084a1.859,1.859,0,0,1-.117,1.891,2.846,2.846,0,0,1-2.29.977c-.143.008-.292.012-.453.012h-3.137V69.913h2.842c1.873,0,2.628.539,2.628,1.681a1.856,1.856,0,0,1-.711,1.548,2.9,2.9,0,0,1-1.643.323A5.284,5.284,0,0,0,268.3,73.536Z" transform="translate(-250.031 -67.754)"/></g><g transform="translate(26.896)"><path class="e" d="M296.675,75.925H284.591a.774.774,0,0,0-.568.231.791.791,0,0,0-.232.584.79.79,0,0,0,.8.8h12.084a.79.79,0,0,0,.8-.8.791.791,0,0,0-.232-.584A.771.771,0,0,0,296.675,75.925Z" transform="translate(-283.791 -69.953)"/><path class="e" d="M286.907,69.685H294.3v2.171a.9.9,0,0,0,.279.671.937.937,0,0,0,.679.271.891.891,0,0,0,.654-.271.911.911,0,0,0,.272-.671v-3.7h-9.276a.767.767,0,0,0,0,1.533Z" transform="translate(-284.592 -67.305)"/><path class="e" d="M286.115,80.443a.682.682,0,0,0,.448.7v2.986q0,1.644,1.787,1.644H294.5q1.8,0,1.8-1.644V80.283H286.115Zm2.3,1.358h6.035v1.964a.423.423,0,0,1-.479.478h-5.076a.423.423,0,0,1-.479-.478Z" transform="translate(-284.583 -71.437)"/><path class="e" d="M319.4,77.352H307.23a.723.723,0,0,0-.534.216.743.743,0,0,0-.216.551.732.732,0,0,0,.216.527.71.71,0,0,0,.534.224h2.06V80.13a.89.89,0,0,0,.272.654.872.872,0,0,0,.448.232,2.97,2.97,0,0,0-.338.487,2.446,2.446,0,0,0-.3,1.181,2.412,2.412,0,0,0,.3,1.165,3.068,3.068,0,0,0,.846.975,4.5,4.5,0,0,0,1.286.622,5.405,5.405,0,0,0,3.081,0,4.454,4.454,0,0,0,1.284-.622,3.047,3.047,0,0,0,.847-.975,2.4,2.4,0,0,0,.3-1.165,2.437,2.437,0,0,0-.3-1.181,2.9,2.9,0,0,0-.344-.494.886.886,0,0,0,.679-.878V78.868H319.4a.743.743,0,0,0,.544-.224.727.727,0,0,0,.223-.527.737.737,0,0,0-.223-.551A.757.757,0,0,0,319.4,77.352Zm-4.517,6.378a2.811,2.811,0,0,1-3.067,0,1.266,1.266,0,0,1,0-2.14,2.815,2.815,0,0,1,3.067,0,1.268,1.268,0,0,1,0,2.14Zm.607-3.6s0,.007,0,.011a4.779,4.779,0,0,0-.6-.235,5.436,5.436,0,0,0-3.081,0,5,5,0,0,0-.653.255c0-.011.005-.02.005-.031V78.868h4.329Z" transform="translate(-291.52 -70.439)"/><path class="e" d="M311.592,72.374a4.689,4.689,0,0,0,1.388.679,5.915,5.915,0,0,0,3.384,0,4.657,4.657,0,0,0,1.389-.679,3.244,3.244,0,0,0,.894-1.046,2.617,2.617,0,0,0,.319-1.253,2.569,2.569,0,0,0-.319-1.245,3.283,3.283,0,0,0-.894-1.038,4.333,4.333,0,0,0-1.389-.686,6.1,6.1,0,0,0-3.384,0,4.36,4.36,0,0,0-1.388.686,3.321,3.321,0,0,0-.9,1.038,2.6,2.6,0,0,0-.318,1.245,2.645,2.645,0,0,0,.318,1.253A3.281,3.281,0,0,0,311.592,72.374Zm.8-2.977a1.914,1.914,0,0,1,.52-.583,2.515,2.515,0,0,1,.79-.367,3.708,3.708,0,0,1,1.931,0,2.523,2.523,0,0,1,.791.367,1.918,1.918,0,0,1,.519.583,1.374,1.374,0,0,1,.184.678,1.4,1.4,0,0,1-.184.694,1.745,1.745,0,0,1-.519.566,2.322,2.322,0,0,1-.791.384,3.727,3.727,0,0,1-1.931,0,2.315,2.315,0,0,1-.79-.384,1.743,1.743,0,0,1-.52-.566,1.415,1.415,0,0,1-.183-.694A1.386,1.386,0,0,1,312.4,69.4Z" transform="translate(-292.848 -66.867)"/><path class="e" d="M331.947,69.109v4.582q0,1.628,1.789,1.628h7.439a.762.762,0,0,0,.55-.223.742.742,0,0,0,0-1.078.75.75,0,0,0-.55-.232h-6.882c-.319,0-.477-.164-.477-.494v-.766h7.232a.732.732,0,0,0,.748-.75.761.761,0,0,0-.214-.535.7.7,0,0,0-.534-.231h-7.232v-1.23h7.264a.763.763,0,0,0,.765-.766.744.744,0,0,0-.224-.535.724.724,0,0,0-.541-.231h-9.564v.16A.683.683,0,0,0,331.947,69.109Z" transform="translate(-300.049 -67.337)"/><path class="e" d="M342.083,80.838H329.934a.754.754,0,0,0-.553.216.817.817,0,0,0,0,1.1.756.756,0,0,0,.553.215h5.156v2.842a.9.9,0,0,0,.272.646.907.907,0,0,0,1.31,0,.9.9,0,0,0,.272-.646V82.37h5.14a.766.766,0,1,0,0-1.532Z" transform="translate(-299.249 -71.626)"/><path class="e" d="M360.36,76.371A12.271,12.271,0,0,1,358.3,74.04a6.041,6.041,0,0,1-.973-3.481V70.3h2.443a.79.79,0,0,0,.781-.783.8.8,0,0,0-.231-.574.74.74,0,0,0-.55-.239h-6.865a.767.767,0,0,0-.559.239.785.785,0,0,0-.239.574.739.739,0,0,0,.239.551.777.777,0,0,0,.559.231h2.538v.175a6.487,6.487,0,0,1-.989,3.624,10.361,10.361,0,0,1-2.235,2.395.817.817,0,0,0-.223.255.821.821,0,0,0,.047.878.81.81,0,0,0,.638.32,1.086,1.086,0,0,0,.591-.144,10.685,10.685,0,0,0,2.778-2.922c.138-.2.266-.409.384-.623a1.942,1.942,0,0,0,.191.336,12.8,12.8,0,0,0,2.729,3.033.55.55,0,0,0,.225.136,1.16,1.16,0,0,0,.335.04.829.829,0,0,0,.638-.3.71.71,0,0,0,.16-.622.575.575,0,0,0-.1-.256A1.244,1.244,0,0,0,360.36,76.371Z" transform="translate(-306.989 -67.494)"/><path class="e" d="M370.554,72.273a.833.833,0,0,0-.6-.239h-1.578V67.739h-2.283v.175a.7.7,0,0,0,.415.7V80.75a.886.886,0,0,0,.279.646.908.908,0,0,0,.663.28.959.959,0,0,0,.926-.926V73.693h1.578a.817.817,0,0,0,.6-.247.817.817,0,0,0,0-1.174Z" transform="translate(-311.828 -67.164)"/></g></g></g></g></svg>